<?xml version="1.0" encoding="UTF-8"?>
<!--
  이간호 (Lee) v3 — 곱슬 단발 + 앞머리 (강아지귀 ❌)
  Character: warm cheerful soft
  Photo reference: Christmas tree photo
  Hair: curly bob (jaw-length) with bangs
  Accent color: coral (#FFB6B0 blush + #C44A3D scrubs)
  Scrubs color (for body in Figma): coral red (#C44A3D)
-->
<svg xmlns="http://www.w3.org/2000/svg" viewBox="-120 -130 240 240" width="288" height="288">
  <!-- Side curls (jaw-length curly bob — outer silhouette) -->
  <path d="M -64 -16 Q -76 16 -72 44 Q -68 68 -56 76 Q -44 56 -52 36 Q -64 16 -60 -20 Z"
        fill="#3A2418" stroke="#2D2A4A" stroke-width="4" stroke-linejoin="round"/>
  <path d="M 64 -16 Q 76 16 72 44 Q 68 68 56 76 Q 44 56 52 36 Q 64 16 60 -20 Z"
        fill="#3A2418" stroke="#2D2A4A" stroke-width="4" stroke-linejoin="round"/>
  <!-- Curl detail dots -->
  <circle cx="-60" cy="40" r="8" fill="#3A2418" stroke="#2D2A4A" stroke-width="3"/>
  <circle cx="60" cy="40" r="8" fill="#3A2418" stroke="#2D2A4A" stroke-width="3"/>
  <circle cx="-52" cy="64" r="6" fill="#3A2418" stroke="#2D2A4A" stroke-width="3"/>
  <circle cx="52" cy="64" r="6" fill="#3A2418" stroke="#2D2A4A" stroke-width="3"/>
  <!-- Head -->
  <ellipse cx="0" cy="0" rx="64" ry="68" fill="#FFE2C6" stroke="#2D2A4A" stroke-width="5"/>
  <!-- Forward fringe / bangs (photo: bangs covering forehead) -->
  <path d="M -56 -28 Q -64 -64 -32 -68 L -16 -56 L -4 -64 L 4 -64 L 16 -56 L 32 -68 Q 64 -64 56 -28
           Q 36 -44 16 -40 Q 0 -44 -16 -40 Q -36 -44 -56 -28 Z"
        fill="#3A2418" stroke="#2D2A4A" stroke-width="4" stroke-linejoin="round"/>
  <!-- Small fringe curls (texture hint) -->
  <circle cx="-36" cy="-44" r="5" fill="#1F1410" opacity="0.4"/>
  <circle cx="36" cy="-44" r="5" fill="#1F1410" opacity="0.4"/>
  <!-- Nurse cap -->
  <path d="M -30 -60 Q -30 -88 0 -92 Q 30 -88 30 -60 L 24 -52 L -24 -52 Z"
        fill="#FFFFFF" stroke="#2D2A4A" stroke-width="4"/>
  <rect x="-4" y="-80" width="8" height="18" fill="#FF6B5B"/>
  <rect x="-9" y="-75" width="18" height="8" fill="#FF6B5B"/>
  <!-- Soft warm closed-eye smile (photo signature) -->
  <path d="M -32 -4 Q -20 -16 -12 -2" stroke="#2D2A4A" stroke-width="5.5" fill="none" stroke-linecap="round"/>
  <path d="M 12 -2 Q 20 -16 32 -4" stroke="#2D2A4A" stroke-width="5.5" fill="none" stroke-linecap="round"/>
  <!-- Warm gentle smile -->
  <path d="M -12 24 Q 0 36 12 24" stroke="#2D2A4A" stroke-width="5" fill="none" stroke-linecap="round"/>
  <!-- Strong blush (warm/festive vibe) -->
  <ellipse cx="-44" cy="20" rx="14" ry="8" fill="#FFB6B0" opacity="0.75"/>
  <ellipse cx="44" cy="20" rx="14" ry="8" fill="#FFB6B0" opacity="0.75"/>
</svg>
